<svg width="116" height="30" viewBox="0 0 116 30" fill="none" xmlns="http://www.w3.org/2000/svg">
<path d="M21.3158 15.7693C25.2399 15.7693 28.5629 19.1378 26.6859 22.5838C26.4829 22.9564 26.2629 23.3207 26.0261 23.6755C24.4647 26.0158 22.2453 27.8398 19.6487 28.9169C17.052 29.994 14.1948 30.2758 11.4382 29.7267C8.68162 29.1776 6.14954 27.8222 4.16217 25.832C2.17479 23.8418 0.821368 21.3061 0.273051 18.5456C-0.275265 15.7851 0.00615083 12.9238 1.08171 10.3235C2.15727 7.72313 3.97867 5.50059 6.31558 3.93689C6.66474 3.70326 7.02306 3.4859 7.38939 3.28517C10.8357 1.3968 14.2105 4.7293 14.2105 8.65902C14.2105 12.5832 17.3917 15.7693 21.3158 15.7693Z" fill="#FF5029"/>
<ellipse cx="23.2894" cy="6.92308" rx="6.71053" ry="6.92308" fill="white"/>
<ellipse cx="23.2895" cy="6.92308" rx="1.97368" ry="1.92308" fill="#202224"/>
<path d="M42.6723 22.192C41.5736 22.192 40.6083 21.952 39.7763 21.472C38.955 20.9813 38.3096 20.2987 37.8403 19.424C37.3816 18.5493 37.1523 17.5413 37.1523 16.4C37.1523 15.2587 37.3816 14.256 37.8403 13.392C38.3096 12.5173 38.955 11.8347 39.7763 11.344C40.6083 10.8533 41.5736 10.608 42.6723 10.608C43.7816 10.608 44.747 10.8533 45.5683 11.344C46.4003 11.8347 47.0456 12.5173 47.5043 13.392C47.963 14.256 48.1923 15.2587 48.1923 16.4C48.1923 17.5413 47.963 18.5493 47.5043 19.424C47.0456 20.2987 46.4003 20.9813 45.5683 21.472C44.747 21.952 43.7816 22.192 42.6723 22.192ZM42.6723 21.008C43.4936 21.008 44.2136 20.8267 44.8323 20.464C45.4616 20.0907 45.947 19.5627 46.2883 18.88C46.6403 18.1867 46.8163 17.36 46.8163 16.4C46.8163 15.44 46.6403 14.6187 46.2883 13.936C45.947 13.2533 45.4616 12.7307 44.8323 12.368C44.2136 11.9947 43.4936 11.808 42.6723 11.808C41.851 11.808 41.1256 11.9947 40.4963 12.368C39.8776 12.7307 39.3923 13.2533 39.0403 13.936C38.699 14.6187 38.5283 15.44 38.5283 16.4C38.5283 17.36 38.699 18.1867 39.0403 18.88C39.3923 19.5627 39.8776 20.0907 40.4963 20.464C41.1256 20.8267 41.851 21.008 42.6723 21.008ZM51.2512 22V10.8H54.9312C55.8059 10.8 56.5259 10.944 57.0912 11.232C57.6565 11.52 58.0725 11.9093 58.3392 12.4C58.6165 12.8907 58.7552 13.4453 58.7552 14.064C58.7552 14.672 58.6219 15.2213 58.3552 15.712C58.0885 16.2027 57.6725 16.5973 57.1072 16.896C56.5419 17.184 55.8165 17.328 54.9312 17.328H52.5952V22H51.2512ZM52.5952 16.192H54.8992C55.7952 16.192 56.4299 16.0053 56.8032 15.632C57.1872 15.248 57.3792 14.7253 57.3792 14.064C57.3792 13.392 57.1872 12.8693 56.8032 12.496C56.4299 12.112 55.7952 11.92 54.8992 11.92H52.5952V16.192ZM64.2608 22V11.904H60.9168V10.8H68.9488V11.904H65.6048V22H64.2608ZM71.7099 22V10.8H73.0539V22H71.7099ZM79.1727 22V11.904H75.8287V10.8H83.8607V11.904H80.5167V22H79.1727ZM84.6522 22L88.7802 10.8H90.2042L94.3162 22H92.8922L91.8682 19.12H87.1002L86.0602 22H84.6522ZM87.5002 18.032H91.4682L89.4842 12.496L87.5002 18.032ZM100.669 22.192C99.8479 22.192 99.1332 22.0427 98.5252 21.744C97.9172 21.4453 97.4479 21.0293 97.1172 20.496C96.7865 19.9627 96.6212 19.344 96.6212 18.64H98.0292C98.0292 19.0773 98.1305 19.4827 98.3332 19.856C98.5359 20.2187 98.8292 20.512 99.2132 20.736C99.6079 20.9493 100.093 21.056 100.669 21.056C101.427 21.056 102.013 20.8747 102.429 20.512C102.845 20.1493 103.053 19.696 103.053 19.152C103.053 18.704 102.957 18.3467 102.765 18.08C102.573 17.8027 102.312 17.5787 101.981 17.408C101.661 17.2373 101.288 17.088 100.861 16.96C100.445 16.832 100.008 16.688 99.5492 16.528C98.6852 16.2293 98.0452 15.8613 97.6292 15.424C97.2132 14.976 97.0052 14.3947 97.0052 13.68C96.9945 13.0827 97.1332 12.5547 97.4212 12.096C97.7092 11.6267 98.1145 11.264 98.6372 11.008C99.1705 10.7413 99.7999 10.608 100.525 10.608C101.24 10.608 101.859 10.7413 102.381 11.008C102.915 11.2747 103.325 11.6427 103.613 12.112C103.912 12.5813 104.067 13.1147 104.077 13.712H102.669C102.669 13.4027 102.589 13.0987 102.429 12.8C102.269 12.4907 102.024 12.24 101.693 12.048C101.373 11.856 100.968 11.76 100.477 11.76C99.8692 11.7493 99.3679 11.904 98.9732 12.224C98.5892 12.544 98.3972 12.9867 98.3972 13.552C98.3972 14.032 98.5305 14.4 98.7972 14.656C99.0745 14.912 99.4585 15.1253 99.9492 15.296C100.44 15.456 101.005 15.6427 101.645 15.856C102.179 16.048 102.659 16.272 103.085 16.528C103.512 16.784 103.843 17.1147 104.077 17.52C104.323 17.9253 104.445 18.4427 104.445 19.072C104.445 19.6053 104.307 20.112 104.029 20.592C103.752 21.0613 103.331 21.4453 102.765 21.744C102.211 22.0427 101.512 22.192 100.669 22.192ZM107.471 22V10.8H108.815V15.872L113.487 10.8H115.183L111.023 15.264L115.247 22H113.615L110.063 16.304L108.815 17.632V22H107.471Z" fill="#F4F5F5"/>
</svg>
